# xmcd CD database file
#
# Track frame offsets:
#	150
#	15791
#	34312
#	51724
#	75580
#	108547
#	130995
#	152592
#	170356
#	186458
#	207956
#	230121
#	272977
#	296663
#	317256
#	341814
#
# Disc length: 4719 seconds
#
# Revision: 1
# Processed by: cddbd v1.5.2PL0 Copyright (c) Steve Scherf et al.
# Submitted via: CDex 1.70beta2
#
DISCID=eb126d10
DTITLE=Various Artist - Geniesser Lounge CD1
DYEAR=2010
DGENRE=Jazz
TTITLE0=jonathan cain - elegance on the catwalk
TTITLE1=thommy emmanuel - somethin's goin' on
TTITLE2=candy dulfer - pee wee
TTITLE3=jeff golub - vibrolux
TTITLE4=classen collective_corinna joseph - new born
TTITLE5=lee ritenour - fly by night
TTITLE6=tom scott and the lL.a. express - sneakin' in the back
TTITLE7=martin taylor - midnight at oasis
TTITLE8=buckshot lefonque - another day
TTITLE9=greg adams - burma road
TTITLE10=doug cameron - rendezvous
TTITLE11=deodato - super strut
TTITLE12=gato barbieri - mystica
TTITLE13=stanley clarke - lisa
TTITLE14=david benoit - le grand
TTITLE15=fausto papetti - ebb tide
EXTD=YEAR: 2010
EXTT0=
EXTT1=
EXTT2=
EXTT3=
EXTT4=
EXTT5=
EXTT6=
EXTT7=
EXTT8=
EXTT9=
EXTT10=
EXTT11=
EXTT12=
EXTT13=
EXTT14=
EXTT15=
PLAYORDER=
